<svg xmlns="http://www.w3.org/2000/svg" xmlns:xlink="http://www.w3.org/1999/xlink" width="310" zoomAndPan="magnify" viewBox="0 0 232.5 119.999999" height="160" preserveAspectRatio="xMidYMid meet" version="1.0"><defs><clipPath id="47cb0afdd4"><path d="M 0 0.128906 L 232 0.128906 L 232 119.871094 L 0 119.871094 Z M 0 0.128906 " clip-rule="nonzero"/></clipPath><clipPath id="b8c4488b8c"><path d="M 63.550781 12.101562 L 162.335938 12.101562 L 162.335938 110.890625 L 63.550781 110.890625 Z M 63.550781 12.101562 " clip-rule="nonzero"/></clipPath></defs><g clip-path="url(#47cb0afdd4)"><path fill="#ffffff" d="M 0 0.128906 L 232 0.128906 L 232 119.871094 L 0 119.871094 Z M 0 0.128906 " fill-opacity="1" fill-rule="nonzero"/><path fill="#ffffff" d="M 0 0.128906 L 232 0.128906 L 232 119.871094 L 0 119.871094 Z M 0 0.128906 " fill-opacity="1" fill-rule="nonzero"/></g><g clip-path="url(#b8c4488b8c)"><path fill="#ffb608" d="M 131.6875 92.785156 C 130.828125 92.785156 130.128906 93.484375 130.128906 94.347656 L 130.128906 94.828125 C 130.128906 96.261719 128.960938 97.425781 127.527344 97.425781 L 69.269531 97.425781 C 67.835938 97.425781 66.671875 96.261719 66.671875 94.828125 L 66.671875 19.925781 C 66.671875 18.492188 67.835938 17.324219 69.269531 17.324219 L 84.355469 17.324219 L 84.355469 22.527344 L 73.433594 22.527344 C 72.570312 22.527344 71.871094 23.226562 71.871094 24.085938 L 71.871094 90.664062 C 71.871094 91.527344 72.570312 92.226562 73.433594 92.226562 L 98.273438 92.226562 C 99.136719 92.226562 99.835938 91.527344 99.835938 90.664062 C 99.835938 89.804688 99.136719 89.105469 98.273438 89.105469 L 74.992188 89.105469 L 74.992188 25.648438 L 84.71875 25.648438 C 85.308594 26.875 86.550781 27.730469 87.996094 27.730469 L 108.800781 27.730469 C 110.25 27.730469 111.492188 26.875 112.078125 25.648438 L 121.804688 25.648438 L 121.804688 35.65625 C 121.804688 36.515625 122.503906 37.214844 123.367188 37.214844 C 124.226562 37.214844 124.925781 36.515625 124.925781 35.65625 L 124.925781 24.085938 C 124.925781 23.226562 124.226562 22.527344 123.367188 22.527344 L 112.441406 22.527344 L 112.441406 17.324219 L 127.527344 17.324219 C 128.960938 17.324219 130.128906 18.492188 130.128906 19.925781 L 130.128906 38.402344 C 130.128906 39.261719 130.828125 39.960938 131.6875 39.960938 C 132.550781 39.960938 133.25 39.261719 133.25 38.402344 L 133.25 19.925781 C 133.25 16.769531 130.683594 14.203125 127.527344 14.203125 L 112.078125 14.203125 C 111.492188 12.980469 110.25 12.125 108.800781 12.125 L 87.996094 12.125 C 86.550781 12.125 85.308594 12.980469 84.71875 14.203125 L 69.269531 14.203125 C 66.117188 14.203125 63.550781 16.769531 63.550781 19.925781 L 63.550781 94.828125 C 63.550781 97.980469 66.117188 100.546875 69.269531 100.546875 L 127.527344 100.546875 C 130.683594 100.546875 133.25 97.980469 133.25 94.828125 L 133.25 94.347656 C 133.25 93.484375 132.550781 92.785156 131.6875 92.785156 Z M 87.996094 15.246094 L 108.800781 15.246094 C 109.089844 15.246094 109.320312 15.480469 109.320312 15.765625 L 109.320312 24.085938 C 109.320312 24.375 109.089844 24.609375 108.800781 24.609375 L 87.996094 24.609375 C 87.710938 24.609375 87.476562 24.375 87.476562 24.085938 L 87.476562 15.765625 C 87.476562 15.480469 87.710938 15.246094 87.996094 15.246094 Z M 95.796875 42.832031 L 95.796875 37.089844 L 82.273438 37.089844 L 82.273438 50.613281 L 90.035156 50.613281 C 90.898438 50.613281 91.59375 51.3125 91.59375 52.175781 C 91.59375 53.035156 90.898438 53.734375 90.035156 53.734375 L 80.714844 53.734375 C 79.851562 53.734375 79.152344 53.035156 79.152344 52.175781 L 79.152344 35.53125 C 79.152344 34.667969 79.851562 33.96875 80.714844 33.96875 L 97.359375 33.96875 C 98.21875 33.96875 98.917969 34.667969 98.917969 35.53125 L 98.917969 42.832031 C 98.917969 43.695312 98.21875 44.394531 97.359375 44.394531 C 96.496094 44.394531 95.796875 43.695312 95.796875 42.832031 Z M 82.273438 64.136719 L 82.273438 77.660156 L 89.390625 77.660156 C 90.25 77.660156 90.949219 78.359375 90.949219 79.222656 C 90.949219 80.082031 90.25 80.78125 89.390625 80.78125 L 80.714844 80.78125 C 79.851562 80.78125 79.152344 80.082031 79.152344 79.222656 L 79.152344 62.578125 C 79.152344 61.714844 79.851562 61.015625 80.714844 61.015625 L 86.851562 61.015625 C 87.714844 61.015625 88.414062 61.714844 88.414062 62.578125 C 88.414062 63.441406 87.714844 64.136719 86.851562 64.136719 Z M 112.984375 33.96875 C 113.84375 33.96875 114.542969 34.667969 114.542969 35.53125 C 114.542969 36.390625 113.84375 37.089844 112.984375 37.089844 L 105.679688 37.089844 C 104.820312 37.089844 104.121094 36.390625 104.121094 35.53125 C 104.121094 34.667969 104.820312 33.96875 105.679688 33.96875 Z M 130.710938 53.496094 C 123.613281 46.398438 112.0625 46.398438 104.964844 53.496094 C 97.867188 60.59375 97.867188 72.144531 104.964844 79.242188 C 108.515625 82.792969 113.175781 84.566406 117.835938 84.566406 C 122.5 84.566406 127.160156 82.792969 130.710938 79.242188 C 137.808594 72.144531 137.808594 60.59375 130.710938 53.496094 Z M 128.503906 77.035156 C 122.625 82.914062 113.054688 82.917969 107.171875 77.035156 C 101.289062 71.15625 101.289062 61.585938 107.171875 55.703125 C 110.113281 52.761719 113.976562 51.292969 117.839844 51.292969 C 121.699219 51.292969 125.5625 52.761719 128.503906 55.703125 C 134.386719 61.585938 134.386719 71.15625 128.503906 77.035156 Z M 125.183594 61.105469 C 125.792969 61.714844 125.792969 62.703125 125.183594 63.3125 L 116.859375 71.632812 C 116.554688 71.9375 116.15625 72.089844 115.757812 72.089844 C 115.355469 72.089844 114.957031 71.9375 114.652344 71.632812 L 110.492188 67.472656 C 109.882812 66.863281 109.882812 65.875 110.492188 65.265625 C 111.101562 64.65625 112.089844 64.65625 112.699219 65.265625 L 115.757812 68.324219 L 122.976562 61.105469 C 123.585938 60.496094 124.574219 60.496094 125.183594 61.105469 Z M 160.132812 97.632812 L 146.894531 84.390625 C 146.308594 83.804688 145.273438 83.804688 144.6875 84.390625 L 144.320312 84.757812 L 140.1875 80.628906 C 146.734375 70.371094 145.546875 56.566406 136.59375 47.613281 C 131.585938 42.601562 124.921875 39.84375 117.835938 39.84375 C 110.753906 39.84375 104.089844 42.601562 99.082031 47.613281 C 88.738281 57.957031 88.738281 74.78125 99.082031 85.125 C 104.089844 90.136719 110.753906 92.898438 117.835938 92.898438 C 122.972656 92.898438 127.878906 91.429688 132.101562 88.722656 L 136.226562 92.851562 L 135.859375 93.21875 C 135.566406 93.511719 135.402344 93.910156 135.402344 94.324219 C 135.402344 94.738281 135.566406 95.132812 135.859375 95.425781 L 149.101562 108.664062 C 150.574219 110.136719 152.53125 110.949219 154.617188 110.949219 C 156.699219 110.949219 158.660156 110.140625 160.132812 108.664062 C 161.605469 107.191406 162.417969 105.234375 162.417969 103.148438 C 162.417969 101.0625 161.605469 99.105469 160.132812 97.632812 Z M 101.289062 82.921875 C 92.160156 73.792969 92.160156 58.945312 101.289062 49.816406 C 105.707031 45.398438 111.585938 42.964844 117.835938 42.964844 C 124.089844 42.964844 129.96875 45.398438 134.386719 49.816406 C 143.515625 58.945312 143.515625 73.792969 134.386719 82.921875 C 129.96875 87.339844 124.089844 89.777344 117.835938 89.777344 C 111.585938 89.777344 105.707031 87.339844 101.289062 82.921875 Z M 136.59375 85.125 C 137.214844 84.507812 137.792969 83.859375 138.339844 83.195312 L 142.113281 86.964844 L 138.433594 90.644531 L 134.667969 86.875 C 135.332031 86.328125 135.976562 85.746094 136.59375 85.125 Z M 157.925781 106.457031 C 156.15625 108.226562 153.074219 108.226562 151.308594 106.457031 L 139.167969 94.324219 L 145.789062 87.703125 L 157.925781 99.839844 C 158.8125 100.722656 159.296875 101.898438 159.296875 103.148438 C 159.296875 104.402344 158.8125 105.574219 157.925781 106.457031 Z M 157.925781 106.457031 " fill-opacity="1" fill-rule="nonzero"/></g></svg>