<svg xmlns="http://www.w3.org/2000/svg" xmlns:xlink="http://www.w3.org/1999/xlink" width="310" zoomAndPan="magnify" viewBox="0 0 232.5 119.999999" height="160" preserveAspectRatio="xMidYMid meet" version="1.0"><defs><clipPath id="c5a3a912fe"><path d="M 0 0.128906 L 232 0.128906 L 232 119.871094 L 0 119.871094 Z M 0 0.128906 " clip-rule="nonzero"/></clipPath><clipPath id="43f128bae7"><path d="M 68.183594 12.257812 L 163.976562 12.257812 L 163.976562 108 L 68.183594 108 Z M 68.183594 12.257812 " clip-rule="nonzero"/></clipPath></defs><g clip-path="url(#c5a3a912fe)"><path fill="#ffffff" d="M 0 0.128906 L 232 0.128906 L 232 119.871094 L 0 119.871094 Z M 0 0.128906 " fill-opacity="1" fill-rule="nonzero"/><path fill="#ffffff" d="M 0 0.128906 L 232 0.128906 L 232 119.871094 L 0 119.871094 Z M 0 0.128906 " fill-opacity="1" fill-rule="nonzero"/></g><g clip-path="url(#43f128bae7)"><path fill="#ffe546" d="M 115.988281 107.4375 C 89.867188 107.4375 68.613281 86.1875 68.613281 60.066406 C 68.613281 33.945312 89.867188 12.691406 115.988281 12.691406 C 142.109375 12.691406 163.359375 33.945312 163.359375 60.066406 C 163.359375 86.1875 142.109375 107.4375 115.988281 107.4375 Z M 115.988281 107.4375 " fill-opacity="1" fill-rule="nonzero"/><path fill="#000000" d="M 115.988281 13.125 C 141.914062 13.125 162.929688 34.140625 162.929688 60.066406 C 162.929688 85.988281 141.914062 107.007812 115.988281 107.007812 C 90.0625 107.007812 69.046875 85.988281 69.046875 60.066406 C 69.046875 34.140625 90.0625 13.125 115.988281 13.125 M 115.988281 12.257812 C 89.628906 12.257812 68.183594 33.703125 68.183594 60.066406 C 68.183594 86.425781 89.628906 107.871094 115.988281 107.871094 C 142.347656 107.871094 163.792969 86.425781 163.792969 60.066406 C 163.792969 33.703125 142.347656 12.257812 115.988281 12.257812 Z M 115.988281 12.257812 " fill-opacity="1" fill-rule="nonzero"/></g><path fill="#000000" d="M 91.859375 38.113281 C 91.6875 38.035156 91.511719 38.039062 91.335938 38.117188 C 91.234375 38.164062 91.132812 38.175781 91.035156 38.144531 C 90.9375 38.117188 90.824219 38.0625 90.703125 37.988281 C 90.578125 37.914062 90.433594 37.835938 90.261719 37.75 C 90.085938 37.644531 89.90625 37.570312 89.714844 37.53125 C 89.527344 37.492188 89.328125 37.484375 89.121094 37.507812 C 88.984375 37.519531 88.847656 37.558594 88.710938 37.609375 C 88.71875 37.414062 88.714844 37.21875 88.671875 37.015625 C 88.609375 36.726562 88.503906 36.457031 88.351562 36.203125 C 88.199219 35.949219 88.007812 35.738281 87.773438 35.570312 C 87.390625 35.292969 86.988281 35.132812 86.566406 35.09375 C 86.144531 35.050781 85.753906 35.105469 85.382812 35.265625 C 85.015625 35.421875 84.714844 35.660156 84.488281 35.980469 L 82.585938 38.621094 C 82.472656 38.78125 82.429688 38.953125 82.460938 39.136719 C 82.488281 39.320312 82.585938 39.46875 82.742188 39.585938 L 88.050781 43.402344 C 88.207031 43.515625 88.390625 43.542969 88.59375 43.484375 C 88.796875 43.429688 88.960938 43.3125 89.085938 43.140625 C 89.195312 42.988281 89.226562 42.832031 89.183594 42.667969 C 89.136719 42.503906 89.035156 42.367188 88.875 42.253906 L 87.09375 40.972656 L 88.328125 39.253906 C 88.429688 39.113281 88.535156 39.003906 88.644531 38.925781 C 88.75 38.84375 88.863281 38.792969 88.976562 38.773438 C 89.085938 38.75 89.203125 38.753906 89.316406 38.78125 C 89.433594 38.808594 89.542969 38.859375 89.644531 38.933594 C 89.964844 39.164062 90.246094 39.316406 90.496094 39.398438 C 90.746094 39.480469 90.964844 39.511719 91.160156 39.492188 C 91.355469 39.476562 91.519531 39.4375 91.65625 39.375 C 91.738281 39.335938 91.832031 39.269531 91.925781 39.179688 C 92.023438 39.09375 92.097656 38.988281 92.152344 38.867188 C 92.203125 38.75 92.214844 38.625 92.183594 38.503906 C 92.144531 38.316406 92.035156 38.183594 91.859375 38.109375 Z M 87.59375 38.28125 L 86.148438 40.292969 L 84.066406 38.792969 L 85.511719 36.785156 C 85.628906 36.617188 85.832031 36.527344 86.113281 36.515625 C 86.398438 36.5 86.675781 36.589844 86.945312 36.785156 C 87.152344 36.933594 87.320312 37.105469 87.445312 37.296875 C 87.570312 37.492188 87.648438 37.675781 87.675781 37.851562 C 87.699219 38.027344 87.675781 38.171875 87.59375 38.28125 Z M 87.59375 38.28125 " fill-opacity="1" fill-rule="nonzero"/><path fill="#000000" d="M 96.089844 33.710938 C 95.90625 33.703125 95.738281 33.761719 95.59375 33.894531 L 93.324219 35.953125 L 91.917969 34.402344 L 93.8125 32.6875 C 93.957031 32.554688 94.039062 32.402344 94.058594 32.226562 C 94.078125 32.050781 94.023438 31.894531 93.898438 31.753906 C 93.765625 31.609375 93.609375 31.535156 93.429688 31.53125 C 93.246094 31.527344 93.085938 31.589844 92.9375 31.722656 L 91.046875 33.4375 L 89.753906 32.015625 L 92.023438 29.957031 C 92.171875 29.824219 92.253906 29.671875 92.273438 29.496094 C 92.292969 29.320312 92.238281 29.164062 92.109375 29.023438 C 91.980469 28.878906 91.824219 28.804688 91.640625 28.800781 C 91.460938 28.796875 91.296875 28.859375 91.152344 28.992188 L 88.34375 31.535156 C 88.199219 31.667969 88.121094 31.828125 88.113281 32.015625 C 88.105469 32.199219 88.164062 32.367188 88.296875 32.511719 L 92.6875 37.355469 C 92.816406 37.5 92.976562 37.578125 93.164062 37.585938 C 93.347656 37.597656 93.515625 37.535156 93.660156 37.402344 L 96.46875 34.859375 C 96.613281 34.726562 96.695312 34.570312 96.710938 34.394531 C 96.726562 34.21875 96.671875 34.058594 96.546875 33.917969 C 96.429688 33.789062 96.277344 33.71875 96.09375 33.710938 Z M 96.089844 33.710938 " fill-opacity="1" fill-rule="nonzero"/><path fill="#000000" d="M 102.058594 29.710938 C 101.898438 29.644531 101.746094 29.644531 101.601562 29.703125 C 101.457031 29.761719 101.335938 29.867188 101.238281 30.011719 C 101.125 30.191406 100.992188 30.351562 100.835938 30.484375 C 100.679688 30.621094 100.515625 30.742188 100.339844 30.84375 C 100.023438 31.035156 99.699219 31.160156 99.371094 31.230469 C 99.042969 31.296875 98.722656 31.292969 98.40625 31.21875 C 98.085938 31.140625 97.785156 30.992188 97.5 30.765625 C 97.214844 30.542969 96.953125 30.230469 96.71875 29.835938 C 96.519531 29.5 96.386719 29.160156 96.324219 28.824219 C 96.257812 28.484375 96.261719 28.15625 96.335938 27.835938 C 96.40625 27.515625 96.550781 27.21875 96.761719 26.945312 C 96.972656 26.671875 97.25 26.433594 97.601562 26.226562 C 97.789062 26.113281 97.980469 26.027344 98.179688 25.964844 C 98.371094 25.898438 98.570312 25.859375 98.765625 25.839844 C 98.941406 25.824219 99.089844 25.769531 99.21875 25.675781 C 99.34375 25.585938 99.414062 25.457031 99.429688 25.289062 C 99.460938 25.066406 99.414062 24.875 99.273438 24.710938 C 99.136719 24.546875 98.960938 24.472656 98.742188 24.484375 C 98.429688 24.503906 98.117188 24.5625 97.804688 24.660156 C 97.496094 24.757812 97.199219 24.886719 96.910156 25.058594 C 96.40625 25.355469 95.988281 25.71875 95.664062 26.144531 C 95.335938 26.570312 95.109375 27.03125 94.976562 27.527344 C 94.84375 28.019531 94.816406 28.53125 94.894531 29.050781 C 94.972656 29.574219 95.160156 30.085938 95.453125 30.585938 C 95.796875 31.164062 96.191406 31.617188 96.636719 31.941406 C 97.085938 32.269531 97.558594 32.480469 98.058594 32.578125 C 98.558594 32.675781 99.0625 32.675781 99.570312 32.578125 C 100.078125 32.480469 100.5625 32.292969 101.03125 32.015625 C 101.21875 31.902344 101.394531 31.78125 101.558594 31.640625 C 101.722656 31.503906 101.878906 31.355469 102.023438 31.195312 C 102.171875 31.035156 102.304688 30.863281 102.421875 30.679688 C 102.539062 30.503906 102.5625 30.320312 102.496094 30.128906 C 102.429688 29.9375 102.285156 29.796875 102.058594 29.710938 Z M 102.058594 29.710938 " fill-opacity="1" fill-rule="nonzero"/><path fill="#000000" d="M 108.730469 23.035156 C 108.40625 22.625 108.027344 22.289062 107.585938 22.035156 C 107.148438 21.78125 106.675781 21.621094 106.160156 21.558594 C 105.648438 21.496094 105.125 21.546875 104.59375 21.710938 C 104.058594 21.875 103.601562 22.128906 103.21875 22.46875 C 102.832031 22.808594 102.53125 23.207031 102.316406 23.664062 C 102.097656 24.125 101.972656 24.613281 101.9375 25.136719 C 101.902344 25.664062 101.964844 26.195312 102.132812 26.734375 C 102.300781 27.273438 102.546875 27.75 102.871094 28.164062 C 103.195312 28.574219 103.578125 28.910156 104.015625 29.164062 C 104.453125 29.417969 104.925781 29.578125 105.4375 29.640625 C 105.945312 29.707031 106.464844 29.65625 107 29.492188 C 107.53125 29.328125 107.992188 29.074219 108.378906 28.730469 C 108.769531 28.390625 109.070312 27.992188 109.289062 27.535156 C 109.503906 27.078125 109.632812 26.585938 109.667969 26.0625 C 109.703125 25.539062 109.636719 25.003906 109.46875 24.464844 C 109.300781 23.925781 109.054688 23.449219 108.730469 23.035156 Z M 108.179688 26.300781 C 108.105469 26.753906 107.9375 27.148438 107.667969 27.484375 C 107.402344 27.820312 107.046875 28.054688 106.597656 28.191406 C 106.152344 28.332031 105.722656 28.339844 105.3125 28.210938 C 104.902344 28.085938 104.542969 27.855469 104.230469 27.523438 C 103.917969 27.1875 103.6875 26.78125 103.539062 26.300781 C 103.386719 25.808594 103.347656 25.339844 103.417969 24.890625 C 103.488281 24.445312 103.65625 24.054688 103.925781 23.71875 C 104.191406 23.382812 104.546875 23.144531 104.996094 23.007812 C 105.441406 22.871094 105.867188 22.863281 106.28125 22.988281 C 106.6875 23.117188 107.050781 23.34375 107.367188 23.675781 C 107.683594 24.007812 107.917969 24.417969 108.066406 24.898438 C 108.214844 25.378906 108.253906 25.847656 108.179688 26.300781 Z M 108.179688 26.300781 " fill-opacity="1" fill-rule="nonzero"/><path fill="#000000" d="M 118.632812 20.117188 C 118.484375 19.996094 118.320312 19.9375 118.140625 19.941406 C 117.914062 19.949219 117.730469 20.058594 117.597656 20.265625 L 115.191406 24.144531 L 112.601562 20.441406 C 112.539062 20.351562 112.445312 20.28125 112.328125 20.230469 C 112.207031 20.175781 112.097656 20.152344 111.992188 20.15625 C 111.792969 20.164062 111.628906 20.238281 111.496094 20.378906 C 111.359375 20.519531 111.296875 20.683594 111.304688 20.871094 L 111.53125 27.414062 C 111.535156 27.609375 111.601562 27.773438 111.730469 27.898438 C 111.855469 28.027344 112.011719 28.085938 112.199219 28.082031 C 112.394531 28.074219 112.550781 28.003906 112.667969 27.867188 C 112.78125 27.730469 112.835938 27.566406 112.832031 27.371094 L 112.667969 22.714844 L 114.636719 25.597656 C 114.707031 25.679688 114.792969 25.746094 114.898438 25.804688 C 115 25.859375 115.101562 25.882812 115.199219 25.871094 C 115.304688 25.875 115.410156 25.847656 115.507812 25.78125 C 115.609375 25.71875 115.691406 25.644531 115.753906 25.558594 L 117.519531 22.648438 L 117.679688 27.199219 C 117.6875 27.394531 117.757812 27.558594 117.894531 27.6875 C 118.03125 27.8125 118.203125 27.871094 118.417969 27.867188 C 118.628906 27.859375 118.792969 27.785156 118.917969 27.652344 C 119.042969 27.515625 119.101562 27.347656 119.09375 27.152344 L 118.867188 20.609375 C 118.859375 20.40625 118.78125 20.242188 118.632812 20.121094 Z M 118.632812 20.117188 " fill-opacity="1" fill-rule="nonzero"/><path fill="#000000" d="M 129.414062 22.199219 C 129.304688 22.039062 129.160156 21.9375 128.984375 21.894531 C 128.765625 21.84375 128.5625 21.898438 128.375 22.0625 L 125.011719 25.140625 L 123.519531 20.875 C 123.480469 20.773438 123.414062 20.679688 123.3125 20.597656 C 123.210938 20.515625 123.113281 20.460938 123.007812 20.4375 C 122.816406 20.390625 122.640625 20.417969 122.472656 20.515625 C 122.304688 20.613281 122.199219 20.757812 122.152344 20.9375 L 120.601562 27.300781 C 120.554688 27.488281 120.574219 27.664062 120.660156 27.820312 C 120.746094 27.976562 120.882812 28.078125 121.066406 28.121094 C 121.253906 28.167969 121.425781 28.140625 121.574219 28.042969 C 121.722656 27.941406 121.820312 27.796875 121.867188 27.609375 L 122.96875 23.082031 L 124.082031 26.390625 C 124.128906 26.488281 124.195312 26.578125 124.28125 26.660156 C 124.363281 26.742188 124.453125 26.792969 124.550781 26.808594 C 124.652344 26.839844 124.757812 26.839844 124.871094 26.804688 C 124.984375 26.769531 125.085938 26.71875 125.171875 26.65625 L 127.660156 24.335938 L 126.578125 28.757812 C 126.53125 28.945312 126.558594 29.121094 126.65625 29.28125 C 126.75 29.441406 126.902344 29.546875 127.109375 29.59375 C 127.3125 29.644531 127.492188 29.621094 127.648438 29.523438 C 127.804688 29.425781 127.90625 29.28125 127.953125 29.089844 L 129.503906 22.730469 C 129.550781 22.535156 129.523438 22.355469 129.414062 22.195312 Z M 129.414062 22.199219 " fill-opacity="1" fill-rule="nonzero"/><path fill="#000000" d="M 135 28.945312 C 135.089844 28.773438 135.105469 28.597656 135.042969 28.429688 C 134.984375 28.257812 134.867188 28.125 134.691406 28.039062 L 132.417969 26.867188 L 133.296875 25.160156 L 136.023438 26.558594 C 136.195312 26.648438 136.371094 26.671875 136.539062 26.628906 C 136.710938 26.585938 136.839844 26.480469 136.925781 26.3125 C 137.015625 26.136719 137.03125 25.964844 136.96875 25.792969 C 136.910156 25.621094 136.792969 25.492188 136.617188 25.402344 L 133.25 23.671875 C 133.074219 23.582031 132.898438 23.566406 132.722656 23.621094 C 132.542969 23.679688 132.410156 23.792969 132.320312 23.96875 L 129.332031 29.78125 C 129.242188 29.957031 129.226562 30.132812 129.28125 30.308594 C 129.339844 30.488281 129.453125 30.621094 129.628906 30.710938 L 132.996094 32.445312 C 133.171875 32.535156 133.34375 32.554688 133.519531 32.507812 C 133.691406 32.460938 133.820312 32.355469 133.90625 32.1875 C 133.984375 32.03125 133.996094 31.863281 133.9375 31.6875 C 133.882812 31.511719 133.765625 31.375 133.59375 31.285156 L 130.867188 29.886719 L 131.824219 28.023438 L 134.097656 29.191406 C 134.269531 29.28125 134.441406 29.304688 134.613281 29.261719 C 134.785156 29.21875 134.914062 29.113281 135 28.945312 Z M 135 28.945312 " fill-opacity="1" fill-rule="nonzero"/><path fill="#000000" d="M 144.375 31.441406 C 144.363281 31.277344 144.289062 31.136719 144.152344 31.019531 C 144.007812 30.902344 143.851562 30.851562 143.6875 30.871094 C 143.523438 30.890625 143.382812 30.96875 143.269531 31.109375 L 140.152344 34.847656 L 140.351562 28.179688 C 140.363281 28.082031 140.339844 27.980469 140.277344 27.878906 C 140.21875 27.773438 140.148438 27.6875 140.066406 27.621094 C 139.914062 27.496094 139.746094 27.441406 139.5625 27.457031 C 139.375 27.476562 139.222656 27.558594 139.09375 27.710938 L 134.875 32.777344 C 134.761719 32.914062 134.707031 33.066406 134.714844 33.230469 C 134.726562 33.398438 134.800781 33.535156 134.9375 33.652344 C 135.082031 33.773438 135.238281 33.824219 135.40625 33.804688 C 135.574219 33.789062 135.714844 33.710938 135.832031 33.570312 L 138.921875 29.859375 L 138.738281 36.566406 C 138.738281 36.648438 138.769531 36.730469 138.824219 36.824219 C 138.882812 36.914062 138.949219 36.992188 139.023438 37.054688 C 139.175781 37.179688 139.34375 37.234375 139.527344 37.21875 C 139.714844 37.199219 139.871094 37.117188 139.996094 36.964844 L 144.214844 31.898438 C 144.328125 31.761719 144.382812 31.609375 144.375 31.445312 Z M 144.375 31.441406 " fill-opacity="1" fill-rule="nonzero"/><path fill="#000000" d="M 149.472656 37.882812 C 149.386719 37.421875 149.183594 36.972656 148.859375 36.535156 L 147.261719 34.359375 C 147.144531 34.199219 146.992188 34.105469 146.808594 34.078125 C 146.625 34.050781 146.453125 34.09375 146.296875 34.210938 L 141.027344 38.082031 C 140.871094 38.199219 140.777344 38.347656 140.75 38.53125 C 140.722656 38.71875 140.765625 38.886719 140.882812 39.046875 L 142.480469 41.222656 C 142.914062 41.8125 143.421875 42.203125 144.003906 42.398438 C 144.585938 42.59375 145.199219 42.617188 145.835938 42.476562 C 146.476562 42.335938 147.089844 42.046875 147.679688 41.613281 C 148.117188 41.292969 148.484375 40.929688 148.785156 40.527344 C 149.082031 40.125 149.292969 39.699219 149.414062 39.25 C 149.539062 38.800781 149.554688 38.34375 149.46875 37.882812 Z M 148.023438 38.933594 C 147.921875 39.214844 147.769531 39.480469 147.558594 39.734375 C 147.347656 39.988281 147.097656 40.21875 146.8125 40.429688 C 146.429688 40.710938 146.035156 40.914062 145.628906 41.039062 C 145.21875 41.167969 144.828125 41.183594 144.453125 41.085938 C 144.074219 40.988281 143.746094 40.746094 143.464844 40.363281 L 142.359375 38.859375 L 146.644531 35.710938 L 147.75 37.214844 C 147.957031 37.5 148.082031 37.789062 148.117188 38.082031 C 148.152344 38.371094 148.121094 38.65625 148.023438 38.9375 Z M 148.023438 38.933594 " fill-opacity="1" fill-rule="nonzero"/><path fill="#ffb608" d="M 115.988281 84.503906 C 109.25 84.503906 102.917969 81.886719 98.167969 77.132812 C 93.414062 72.382812 90.796875 66.054688 90.796875 59.3125 C 90.796875 52.574219 93.414062 46.246094 98.167969 41.492188 C 102.917969 36.738281 109.25 34.121094 115.988281 34.121094 C 122.726562 34.121094 129.058594 36.738281 133.808594 41.492188 C 138.5625 46.246094 141.179688 52.574219 141.179688 59.3125 C 141.179688 66.054688 138.5625 72.382812 133.808594 77.132812 C 129.058594 81.886719 122.726562 84.503906 115.988281 84.503906 Z M 115.988281 84.503906 " fill-opacity="1" fill-rule="nonzero"/><path fill="#000000" d="M 115.988281 34.554688 C 122.332031 34.554688 128.675781 36.96875 133.503906 41.796875 C 143.160156 51.457031 143.160156 67.171875 133.503906 76.828125 C 128.675781 81.65625 122.332031 84.070312 115.988281 84.070312 C 109.644531 84.070312 103.300781 81.65625 98.472656 76.828125 C 88.816406 67.167969 88.816406 51.457031 98.472656 41.796875 C 103.300781 36.96875 109.644531 34.554688 115.988281 34.554688 M 115.992188 33.6875 L 115.992188 34.554688 L 115.992188 33.6875 L 115.988281 33.6875 C 109.132812 33.6875 102.695312 36.351562 97.859375 41.1875 C 87.867188 51.179688 87.867188 67.445312 97.859375 77.441406 C 102.695312 82.277344 109.132812 84.9375 115.988281 84.9375 C 122.84375 84.9375 129.28125 82.277344 134.117188 77.441406 C 144.109375 67.445312 144.109375 51.183594 134.117188 41.1875 C 129.28125 36.351562 122.84375 33.6875 115.988281 33.6875 Z M 115.992188 33.6875 " fill-opacity="1" fill-rule="nonzero"/><path fill="#000000" d="M 115.988281 90.089844 C 115.988281 90.089844 115.992188 90.089844 115.996094 90.089844 C 116.046875 90.09375 116.097656 90.121094 116.125 90.175781 L 117.753906 93.472656 C 117.773438 93.519531 117.816406 93.550781 117.867188 93.554688 L 121.507812 94.085938 C 121.632812 94.105469 121.679688 94.257812 121.589844 94.34375 L 118.957031 96.910156 C 118.921875 96.945312 118.90625 96.996094 118.914062 97.046875 L 119.535156 100.671875 C 119.550781 100.769531 119.476562 100.851562 119.386719 100.851562 C 119.363281 100.851562 119.339844 100.84375 119.316406 100.832031 L 116.058594 99.121094 C 116.039062 99.109375 116.019531 99.105469 115.996094 99.101562 C 115.996094 99.101562 115.992188 99.101562 115.988281 99.101562 C 115.964844 99.101562 115.941406 99.109375 115.917969 99.121094 L 112.664062 100.832031 C 112.640625 100.84375 112.617188 100.851562 112.59375 100.851562 C 112.503906 100.851562 112.425781 100.769531 112.441406 100.671875 L 113.066406 97.046875 C 113.074219 96.996094 113.058594 96.945312 113.019531 96.910156 L 110.386719 94.34375 C 110.296875 94.257812 110.347656 94.105469 110.472656 94.085938 L 114.113281 93.554688 C 114.160156 93.550781 114.203125 93.519531 114.226562 93.472656 L 115.855469 90.175781 C 115.882812 90.117188 115.9375 90.089844 115.988281 90.089844 M 115.988281 89.226562 C 115.597656 89.226562 115.25 89.441406 115.078125 89.792969 L 113.617188 92.753906 L 110.347656 93.226562 C 109.960938 93.285156 109.644531 93.546875 109.523438 93.921875 C 109.40625 94.292969 109.503906 94.691406 109.78125 94.964844 L 112.148438 97.269531 L 111.589844 100.523438 C 111.539062 100.820312 111.621094 101.121094 111.8125 101.351562 C 112.007812 101.582031 112.292969 101.714844 112.59375 101.714844 C 112.757812 101.714844 112.921875 101.671875 113.066406 101.597656 L 115.988281 100.0625 L 118.910156 101.597656 C 119.058594 101.675781 119.222656 101.714844 119.386719 101.714844 C 119.6875 101.714844 119.96875 101.582031 120.164062 101.351562 C 120.355469 101.121094 120.441406 100.820312 120.386719 100.523438 L 119.832031 97.269531 L 122.195312 94.964844 C 122.476562 94.691406 122.574219 94.292969 122.453125 93.921875 C 122.332031 93.546875 122.015625 93.285156 121.628906 93.226562 L 118.363281 92.753906 L 116.902344 89.789062 C 116.738281 89.460938 116.40625 89.242188 116.035156 89.226562 C 116.023438 89.226562 116.003906 89.222656 115.988281 89.222656 Z M 115.988281 89.226562 " fill-opacity="1" fill-rule="nonzero"/><path fill="#fec8c4" d="M 121.589844 94.34375 C 121.679688 94.257812 121.628906 94.105469 121.507812 94.085938 L 117.867188 93.554688 C 117.816406 93.550781 117.773438 93.519531 117.75 93.472656 L 116.125 90.175781 C 116.097656 90.121094 116.046875 90.09375 115.996094 90.089844 C 115.9375 90.089844 115.878906 90.117188 115.851562 90.175781 L 114.222656 93.472656 C 114.199219 93.519531 114.160156 93.550781 114.109375 93.554688 L 110.46875 94.085938 C 110.34375 94.105469 110.296875 94.257812 110.386719 94.34375 L 113.019531 96.910156 C 113.054688 96.945312 113.070312 96.996094 113.0625 97.046875 L 112.441406 100.671875 C 112.417969 100.796875 112.550781 100.890625 112.660156 100.832031 L 115.917969 99.121094 C 115.941406 99.105469 115.96875 99.101562 115.996094 99.101562 C 116.015625 99.105469 116.039062 99.109375 116.058594 99.121094 L 119.3125 100.832031 C 119.425781 100.890625 119.554688 100.796875 119.535156 100.671875 L 118.910156 97.046875 C 118.902344 96.996094 118.917969 96.945312 118.953125 96.910156 Z M 121.589844 94.34375 " fill-opacity="1" fill-rule="nonzero"/><path fill="#000000" d="M 98.945312 84.859375 C 98.945312 84.859375 98.949219 84.859375 98.953125 84.859375 C 99.003906 84.863281 99.054688 84.890625 99.082031 84.945312 L 100.707031 88.242188 C 100.730469 88.285156 100.773438 88.316406 100.824219 88.324219 L 104.460938 88.855469 C 104.585938 88.871094 104.636719 89.023438 104.546875 89.113281 L 101.914062 91.679688 C 101.878906 91.714844 101.859375 91.765625 101.871094 91.8125 L 102.492188 95.4375 C 102.507812 95.539062 102.429688 95.617188 102.339844 95.617188 C 102.316406 95.617188 102.292969 95.613281 102.269531 95.597656 L 99.015625 93.886719 C 98.996094 93.875 98.972656 93.871094 98.953125 93.871094 C 98.949219 93.871094 98.945312 93.871094 98.945312 93.871094 C 98.921875 93.871094 98.898438 93.875 98.875 93.886719 L 95.617188 95.597656 C 95.59375 95.609375 95.570312 95.617188 95.546875 95.617188 C 95.460938 95.617188 95.382812 95.539062 95.398438 95.4375 L 96.019531 91.8125 C 96.027344 91.765625 96.011719 91.714844 95.976562 91.679688 L 93.34375 89.113281 C 93.253906 89.023438 93.304688 88.871094 93.425781 88.851562 L 97.066406 88.324219 C 97.117188 88.316406 97.160156 88.285156 97.183594 88.242188 L 98.808594 84.941406 C 98.835938 84.886719 98.890625 84.859375 98.945312 84.859375 M 98.945312 83.992188 C 98.554688 83.992188 98.203125 84.210938 98.03125 84.558594 L 96.570312 87.519531 L 93.304688 87.996094 C 92.917969 88.050781 92.601562 88.316406 92.480469 88.6875 C 92.359375 89.058594 92.460938 89.457031 92.738281 89.730469 L 95.101562 92.035156 L 94.546875 95.289062 C 94.492188 95.585938 94.574219 95.890625 94.769531 96.117188 C 94.964844 96.347656 95.246094 96.480469 95.546875 96.480469 C 95.710938 96.480469 95.875 96.441406 96.023438 96.363281 L 98.945312 94.828125 L 101.867188 96.363281 C 102.011719 96.441406 102.175781 96.480469 102.339844 96.480469 C 102.640625 96.480469 102.925781 96.347656 103.121094 96.117188 C 103.3125 95.886719 103.394531 95.585938 103.34375 95.289062 L 102.785156 92.035156 L 105.152344 89.730469 C 105.429688 89.457031 105.53125 89.058594 105.40625 88.6875 C 105.289062 88.316406 104.972656 88.050781 104.585938 87.992188 L 101.316406 87.519531 L 99.855469 84.558594 C 99.691406 84.226562 99.359375 84.007812 98.992188 83.992188 C 98.976562 83.992188 98.957031 83.992188 98.945312 83.992188 Z M 98.945312 83.992188 " fill-opacity="1" fill-rule="nonzero"/><path fill="#fec8c4" d="M 104.546875 89.113281 C 104.636719 89.023438 104.585938 88.871094 104.460938 88.851562 L 100.824219 88.324219 C 100.773438 88.316406 100.730469 88.285156 100.707031 88.242188 L 99.082031 84.945312 C 99.054688 84.890625 99.003906 84.863281 98.953125 84.859375 C 98.894531 84.855469 98.835938 84.882812 98.808594 84.945312 L 97.179688 88.242188 C 97.15625 88.285156 97.113281 88.316406 97.066406 88.324219 L 93.425781 88.851562 C 93.300781 88.871094 93.25 89.023438 93.339844 89.113281 L 95.976562 91.679688 C 96.011719 91.714844 96.027344 91.765625 96.019531 91.8125 L 95.394531 95.4375 C 95.375 95.5625 95.503906 95.65625 95.617188 95.597656 L 98.871094 93.886719 C 98.898438 93.875 98.921875 93.867188 98.949219 93.871094 C 98.972656 93.871094 98.992188 93.875 99.015625 93.886719 L 102.269531 95.597656 C 102.378906 95.65625 102.511719 95.5625 102.488281 95.4375 L 101.867188 91.8125 C 101.859375 91.765625 101.875 91.714844 101.910156 91.679688 L 104.542969 89.113281 Z M 104.546875 89.113281 " fill-opacity="1" fill-rule="nonzero"/><path fill="#000000" d="M 133.03125 84.859375 C 133.03125 84.859375 133.035156 84.859375 133.039062 84.859375 C 133.089844 84.863281 133.140625 84.890625 133.167969 84.945312 L 134.796875 88.242188 C 134.820312 88.285156 134.859375 88.316406 134.910156 88.324219 L 138.550781 88.855469 C 138.675781 88.871094 138.722656 89.023438 138.632812 89.113281 L 136 91.679688 C 135.964844 91.714844 135.949219 91.765625 135.957031 91.8125 L 136.578125 95.4375 C 136.597656 95.539062 136.519531 95.617188 136.429688 95.617188 C 136.40625 95.617188 136.382812 95.613281 136.359375 95.597656 L 133.105469 93.886719 C 133.082031 93.875 133.0625 93.871094 133.039062 93.871094 C 133.039062 93.871094 133.035156 93.871094 133.03125 93.871094 C 133.007812 93.871094 132.984375 93.875 132.960938 93.886719 L 129.707031 95.597656 C 129.683594 95.609375 129.660156 95.617188 129.636719 95.617188 C 129.546875 95.617188 129.46875 95.539062 129.488281 95.4375 L 130.109375 91.8125 C 130.117188 91.765625 130.101562 91.714844 130.066406 91.679688 L 127.433594 89.113281 C 127.339844 89.023438 127.390625 88.871094 127.515625 88.855469 L 131.15625 88.324219 C 131.203125 88.316406 131.25 88.285156 131.269531 88.242188 L 132.898438 84.945312 C 132.925781 84.886719 132.980469 84.859375 133.035156 84.859375 M 133.035156 83.992188 C 132.644531 83.992188 132.292969 84.210938 132.121094 84.558594 L 130.660156 87.519531 L 127.390625 87.996094 C 127.003906 88.050781 126.6875 88.316406 126.570312 88.6875 C 126.449219 89.058594 126.546875 89.460938 126.828125 89.730469 L 129.191406 92.035156 L 128.632812 95.292969 C 128.582031 95.589844 128.664062 95.890625 128.859375 96.121094 C 129.050781 96.351562 129.335938 96.480469 129.636719 96.480469 C 129.800781 96.480469 129.964844 96.441406 130.109375 96.367188 L 133.03125 94.828125 L 135.957031 96.367188 C 136.101562 96.441406 136.265625 96.480469 136.429688 96.480469 C 136.730469 96.480469 137.015625 96.351562 137.207031 96.121094 C 137.402344 95.890625 137.484375 95.589844 137.433594 95.292969 L 136.875 92.035156 L 139.238281 89.730469 C 139.519531 89.460938 139.617188 89.058594 139.496094 88.6875 C 139.375 88.316406 139.0625 88.050781 138.675781 87.996094 L 135.40625 87.519531 L 133.945312 84.558594 C 133.78125 84.226562 133.449219 84.011719 133.082031 83.992188 C 133.066406 83.992188 133.046875 83.992188 133.03125 83.992188 Z M 133.035156 83.992188 " fill-opacity="1" fill-rule="nonzero"/><path fill="#fec8c4" d="M 138.632812 89.113281 C 138.722656 89.023438 138.675781 88.871094 138.550781 88.851562 L 134.910156 88.324219 C 134.859375 88.316406 134.816406 88.285156 134.796875 88.242188 L 133.167969 84.945312 C 133.140625 84.890625 133.089844 84.863281 133.039062 84.859375 C 132.984375 84.855469 132.925781 84.882812 132.894531 84.945312 L 131.269531 88.242188 C 131.246094 88.285156 131.203125 88.316406 131.152344 88.324219 L 127.515625 88.851562 C 127.390625 88.871094 127.339844 89.023438 127.429688 89.113281 L 130.0625 91.679688 C 130.097656 91.714844 130.113281 91.765625 130.105469 91.8125 L 129.484375 95.4375 C 129.464844 95.5625 129.59375 95.660156 129.707031 95.597656 L 132.960938 93.886719 C 132.984375 93.875 133.011719 93.871094 133.039062 93.871094 C 133.058594 93.871094 133.082031 93.878906 133.101562 93.886719 L 136.355469 95.597656 C 136.46875 95.660156 136.597656 95.5625 136.578125 95.4375 L 135.957031 91.8125 C 135.949219 91.765625 135.964844 91.714844 136 91.679688 Z M 138.632812 89.113281 " fill-opacity="1" fill-rule="nonzero"/><path fill="#000000" d="M 85.976562 73.742188 C 85.976562 73.742188 85.980469 73.742188 85.984375 73.742188 C 86.035156 73.746094 86.085938 73.773438 86.113281 73.828125 L 87.742188 77.125 C 87.765625 77.167969 87.808594 77.199219 87.855469 77.207031 L 91.496094 77.738281 C 91.621094 77.753906 91.671875 77.90625 91.578125 77.996094 L 88.945312 80.5625 C 88.910156 80.597656 88.894531 80.648438 88.902344 80.695312 L 89.523438 84.324219 C 89.542969 84.421875 89.464844 84.5 89.375 84.5 C 89.351562 84.5 89.328125 84.496094 89.304688 84.484375 L 86.050781 82.769531 C 86.027344 82.761719 86.007812 82.753906 85.984375 82.753906 C 85.984375 82.753906 85.980469 82.753906 85.976562 82.753906 C 85.953125 82.753906 85.929688 82.757812 85.90625 82.769531 L 82.652344 84.484375 C 82.628906 84.496094 82.605469 84.5 82.582031 84.5 C 82.492188 84.5 82.414062 84.421875 82.433594 84.324219 L 83.054688 80.699219 C 83.0625 80.648438 83.046875 80.597656 83.011719 80.5625 L 80.378906 77.996094 C 80.285156 77.90625 80.335938 77.753906 80.460938 77.738281 L 84.101562 77.207031 C 84.148438 77.199219 84.195312 77.171875 84.214844 77.125 L 85.84375 73.828125 C 85.871094 73.769531 85.925781 73.742188 85.980469 73.742188 M 85.980469 72.878906 C 85.589844 72.878906 85.238281 73.09375 85.066406 73.445312 L 83.605469 76.40625 L 80.335938 76.878906 C 79.949219 76.9375 79.632812 77.199219 79.515625 77.574219 C 79.394531 77.945312 79.492188 78.34375 79.773438 78.617188 L 82.136719 80.921875 L 81.578125 84.175781 C 81.527344 84.472656 81.609375 84.773438 81.804688 85.003906 C 81.996094 85.234375 82.28125 85.367188 82.582031 85.367188 C 82.746094 85.367188 82.910156 85.328125 83.054688 85.25 L 85.976562 83.714844 L 88.902344 85.25 C 89.046875 85.328125 89.210938 85.367188 89.375 85.367188 C 89.675781 85.367188 89.960938 85.234375 90.152344 85.003906 C 90.347656 84.773438 90.429688 84.472656 90.378906 84.175781 L 89.820312 80.921875 L 92.183594 78.617188 C 92.464844 78.34375 92.5625 77.945312 92.441406 77.574219 C 92.320312 77.199219 92.007812 76.9375 91.621094 76.878906 L 88.351562 76.40625 L 86.890625 73.445312 C 86.726562 73.113281 86.394531 72.894531 86.027344 72.878906 C 86.011719 72.878906 85.992188 72.878906 85.976562 72.878906 Z M 85.980469 72.878906 " fill-opacity="1" fill-rule="nonzero"/><path fill="#fec8c4" d="M 91.578125 77.996094 C 91.671875 77.90625 91.621094 77.753906 91.496094 77.734375 L 87.855469 77.207031 C 87.804688 77.199219 87.761719 77.167969 87.742188 77.125 L 86.113281 73.824219 C 86.085938 73.773438 86.035156 73.742188 85.984375 73.742188 C 85.929688 73.738281 85.871094 73.765625 85.839844 73.824219 L 84.214844 77.125 C 84.191406 77.167969 84.148438 77.199219 84.097656 77.207031 L 80.460938 77.734375 C 80.335938 77.753906 80.285156 77.90625 80.375 77.996094 L 83.007812 80.5625 C 83.042969 80.597656 83.0625 80.648438 83.050781 80.695312 L 82.429688 84.320312 C 82.410156 84.445312 82.539062 84.539062 82.652344 84.480469 L 85.90625 82.769531 C 85.929688 82.757812 85.957031 82.75 85.984375 82.753906 C 86.003906 82.753906 86.027344 82.757812 86.046875 82.769531 L 89.300781 84.480469 C 89.414062 84.539062 89.542969 84.445312 89.523438 84.320312 L 88.902344 80.695312 C 88.894531 80.648438 88.910156 80.597656 88.945312 80.5625 Z M 91.578125 77.996094 " fill-opacity="1" fill-rule="nonzero"/><path fill="#000000" d="M 146 73.742188 C 146 73.742188 146.003906 73.742188 146.007812 73.742188 C 146.058594 73.746094 146.109375 73.773438 146.136719 73.828125 L 147.761719 77.125 C 147.785156 77.167969 147.828125 77.199219 147.878906 77.207031 L 151.515625 77.738281 C 151.640625 77.753906 151.691406 77.90625 151.601562 77.996094 L 148.96875 80.5625 C 148.933594 80.597656 148.914062 80.648438 148.925781 80.695312 L 149.546875 84.324219 C 149.5625 84.421875 149.484375 84.5 149.394531 84.5 C 149.371094 84.5 149.347656 84.496094 149.324219 84.480469 L 146.070312 82.769531 C 146.050781 82.757812 146.027344 82.753906 146.007812 82.753906 C 146.003906 82.753906 146 82.753906 146 82.753906 C 145.976562 82.753906 145.953125 82.757812 145.929688 82.769531 L 142.671875 84.480469 C 142.648438 84.492188 142.625 84.5 142.601562 84.5 C 142.515625 84.5 142.4375 84.421875 142.453125 84.324219 L 143.074219 80.695312 C 143.082031 80.648438 143.066406 80.597656 143.03125 80.5625 L 140.398438 77.996094 C 140.308594 77.90625 140.355469 77.753906 140.480469 77.738281 L 144.121094 77.207031 C 144.171875 77.199219 144.214844 77.167969 144.234375 77.125 L 145.863281 73.828125 C 145.890625 73.769531 145.945312 73.742188 146 73.742188 M 146 72.875 C 145.609375 72.875 145.257812 73.09375 145.085938 73.441406 L 143.625 76.402344 L 140.355469 76.878906 C 139.972656 76.933594 139.65625 77.199219 139.535156 77.570312 C 139.414062 77.941406 139.515625 78.34375 139.792969 78.613281 L 142.15625 80.917969 L 141.597656 84.175781 C 141.546875 84.472656 141.628906 84.773438 141.824219 85.003906 C 142.019531 85.234375 142.300781 85.367188 142.601562 85.367188 C 142.765625 85.367188 142.929688 85.324219 143.078125 85.25 L 146 83.710938 L 148.921875 85.25 C 149.066406 85.324219 149.230469 85.367188 149.394531 85.367188 C 149.695312 85.367188 149.980469 85.234375 150.175781 85.003906 C 150.367188 84.773438 150.449219 84.472656 150.398438 84.175781 L 149.839844 80.917969 L 152.207031 78.613281 C 152.484375 78.34375 152.585938 77.941406 152.460938 77.570312 C 152.34375 77.199219 152.027344 76.933594 151.640625 76.878906 L 148.371094 76.402344 L 146.910156 73.441406 C 146.746094 73.109375 146.417969 72.894531 146.046875 72.875 C 146.03125 72.875 146.011719 72.875 146 72.875 Z M 146 72.875 " fill-opacity="1" fill-rule="nonzero"/><path fill="#fec8c4" d="M 151.601562 77.996094 C 151.691406 77.90625 151.640625 77.753906 151.515625 77.734375 L 147.878906 77.207031 C 147.828125 77.199219 147.785156 77.167969 147.761719 77.125 L 146.136719 73.824219 C 146.109375 73.773438 146.058594 73.742188 146.007812 73.742188 C 145.949219 73.738281 145.890625 73.765625 145.863281 73.824219 L 144.234375 77.125 C 144.210938 77.167969 144.167969 77.199219 144.121094 77.207031 L 140.480469 77.734375 C 140.355469 77.753906 140.304688 77.90625 140.394531 77.996094 L 143.03125 80.5625 C 143.066406 80.597656 143.082031 80.648438 143.074219 80.695312 L 142.449219 84.320312 C 142.429688 84.445312 142.558594 84.539062 142.671875 84.480469 L 145.925781 82.769531 C 145.953125 82.757812 145.976562 82.75 146.003906 82.753906 C 146.027344 82.753906 146.046875 82.757812 146.066406 82.769531 L 149.324219 84.480469 C 149.433594 84.539062 149.566406 84.445312 149.542969 84.320312 L 148.921875 80.695312 C 148.914062 80.648438 148.929688 80.597656 148.964844 80.5625 L 151.597656 77.996094 Z M 151.601562 77.996094 " fill-opacity="1" fill-rule="nonzero"/><path fill="#ffffff" d="M 121.683594 73.550781 C 119.242188 73.550781 116.761719 73.492188 114.363281 73.433594 L 112.699219 73.390625 C 112.242188 73.382812 111.792969 73.316406 111.359375 73.253906 C 111.023438 73.207031 110.691406 73.15625 110.351562 73.132812 C 109.199219 73.058594 109.210938 72.136719 109.214844 71.832031 C 109.234375 70.5625 109.230469 69.289062 109.226562 68.015625 L 109.226562 66.863281 C 109.140625 66.785156 109.089844 66.671875 109.089844 66.546875 L 109.089844 64.675781 C 109.09375 63.175781 109.09375 61.679688 109.089844 60.179688 C 109.085938 59.101562 109.535156 58.09375 110.429688 57.195312 C 113.492188 54.101562 115.070312 50.265625 116.675781 45.933594 C 116.78125 45.652344 116.78125 45.296875 116.78125 44.917969 C 116.78125 44.746094 116.78125 44.574219 116.789062 44.40625 C 116.804688 44.125 116.847656 43.273438 117.632812 43.273438 C 117.820312 43.273438 118.035156 43.324219 118.332031 43.449219 C 119.597656 43.964844 120.253906 45.34375 119.972656 46.878906 C 119.785156 47.890625 119.527344 48.898438 119.28125 49.871094 C 119.078125 50.679688 118.863281 51.515625 118.695312 52.339844 C 118.554688 53.019531 118.511719 53.792969 118.5625 54.703125 C 118.609375 55.480469 119.015625 55.886719 119.75 55.886719 C 119.855469 55.886719 119.964844 55.878906 120.078125 55.863281 C 120.492188 55.804688 120.902344 55.714844 121.3125 55.628906 C 121.964844 55.492188 122.640625 55.351562 123.332031 55.3125 C 123.9375 55.277344 124.550781 55.253906 125.160156 55.253906 C 126.0625 55.253906 126.851562 55.308594 127.582031 55.417969 C 128.539062 55.5625 129.179688 55.910156 129.53125 56.484375 C 129.914062 57.09375 129.929688 57.910156 129.582031 58.976562 C 129.492188 59.25 129.558594 59.730469 129.71875 59.980469 C 130.710938 61.53125 130.828125 62.058594 129.675781 63.699219 C 129.378906 64.121094 129.332031 64.453125 129.503906 64.84375 C 130.101562 66.195312 129.808594 67.4375 128.65625 68.429688 C 128.21875 68.808594 128.0625 69.222656 128.167969 69.734375 C 128.425781 70.992188 127.914062 72.058594 126.796875 72.585938 C 125.777344 73.070312 124.6875 73.523438 123.617188 73.535156 C 122.972656 73.546875 122.328125 73.550781 121.683594 73.550781 Z M 121.683594 73.550781 " fill-opacity="1" fill-rule="nonzero"/><path fill="#000000" d="M 117.628906 43.707031 C 117.765625 43.707031 117.941406 43.753906 118.167969 43.847656 C 119.207031 44.273438 119.792969 45.441406 119.542969 46.800781 C 119.203125 48.632812 118.644531 50.425781 118.269531 52.253906 C 118.101562 53.054688 118.082031 53.90625 118.128906 54.726562 C 118.1875 55.75 118.796875 56.320312 119.746094 56.320312 C 119.871094 56.320312 120.003906 56.3125 120.140625 56.292969 C 121.214844 56.136719 122.273438 55.804688 123.351562 55.746094 C 123.949219 55.710938 124.554688 55.6875 125.15625 55.6875 C 125.949219 55.6875 126.742188 55.730469 127.515625 55.84375 C 129.285156 56.113281 129.722656 57.128906 129.167969 58.84375 C 129.035156 59.246094 129.121094 59.855469 129.351562 60.214844 C 130.285156 61.671875 130.328125 62.011719 129.320312 63.453125 C 128.96875 63.953125 128.851562 64.449219 129.105469 65.019531 C 129.640625 66.234375 129.355469 67.253906 128.371094 68.105469 C 127.84375 68.5625 127.597656 69.121094 127.742188 69.824219 C 127.960938 70.898438 127.527344 71.761719 126.609375 72.199219 C 125.667969 72.644531 124.617188 73.089844 123.609375 73.105469 C 122.96875 73.113281 122.328125 73.121094 121.683594 73.121094 C 118.691406 73.121094 115.699219 73.027344 112.707031 72.960938 C 111.929688 72.941406 111.15625 72.753906 110.382812 72.703125 C 109.792969 72.664062 109.640625 72.386719 109.648438 71.839844 C 109.671875 70.074219 109.660156 68.3125 109.660156 66.546875 C 109.613281 66.546875 109.570312 66.546875 109.523438 66.546875 C 109.523438 64.425781 109.527344 62.300781 109.523438 60.179688 C 109.519531 59.097656 110.023438 58.21875 110.734375 57.5 C 113.921875 54.285156 115.550781 50.210938 117.082031 46.085938 C 117.265625 45.585938 117.191406 44.984375 117.21875 44.429688 C 117.246094 43.925781 117.347656 43.707031 117.628906 43.707031 M 117.628906 42.839844 C 117.183594 42.839844 116.425781 43.039062 116.355469 44.382812 C 116.34375 44.558594 116.34375 44.738281 116.34375 44.917969 C 116.34375 45.257812 116.347656 45.574219 116.269531 45.785156 C 114.679688 50.066406 113.121094 53.859375 110.121094 56.890625 C 109.144531 57.875 108.652344 58.984375 108.652344 60.183594 C 108.65625 61.679688 108.65625 63.179688 108.65625 64.679688 L 108.65625 66.546875 C 108.65625 66.71875 108.707031 66.878906 108.792969 67.015625 L 108.792969 68.023438 C 108.796875 69.269531 108.800781 70.5625 108.78125 71.828125 C 108.761719 73.25 109.738281 73.527344 110.324219 73.566406 C 110.636719 73.585938 110.957031 73.632812 111.292969 73.683594 C 111.742188 73.746094 112.203125 73.8125 112.6875 73.824219 L 114.363281 73.867188 C 116.761719 73.925781 119.242188 73.984375 121.683594 73.984375 C 122.332031 73.984375 122.976562 73.980469 123.621094 73.972656 C 124.773438 73.953125 125.917969 73.484375 126.980469 72.980469 C 128.269531 72.367188 128.886719 71.089844 128.589844 69.648438 C 128.539062 69.390625 128.542969 69.101562 128.9375 68.761719 C 130.226562 67.644531 130.566406 66.191406 129.894531 64.671875 C 129.816406 64.492188 129.773438 64.3125 130.027344 63.949219 C 131.28125 62.160156 131.167969 61.445312 130.082031 59.746094 C 129.988281 59.605469 129.941406 59.265625 129.992188 59.113281 C 130.378906 57.917969 130.347656 56.980469 129.898438 56.257812 C 129.476562 55.578125 128.71875 55.152344 127.644531 54.988281 C 126.890625 54.878906 126.078125 54.824219 125.15625 54.824219 C 124.605469 54.824219 124.019531 54.839844 123.300781 54.882812 C 122.582031 54.921875 121.890625 55.066406 121.21875 55.207031 C 120.800781 55.296875 120.40625 55.378906 120.011719 55.4375 C 119.917969 55.449219 119.832031 55.457031 119.746094 55.457031 C 119.378906 55.457031 119.03125 55.363281 118.992188 54.679688 C 118.941406 53.804688 118.984375 53.070312 119.113281 52.429688 C 119.28125 51.617188 119.492188 50.789062 119.695312 49.988281 C 119.945312 49.003906 120.203125 47.988281 120.390625 46.960938 C 120.714844 45.21875 119.953125 43.644531 118.492188 43.046875 C 118.140625 42.902344 117.875 42.839844 117.628906 42.839844 Z M 117.628906 42.839844 " fill-opacity="1" fill-rule="nonzero"/><path fill="#ffffff" d="M 104.042969 73.101562 C 103.070312 73.101562 102.425781 72.699219 102.082031 71.871094 C 102.058594 71.816406 102.046875 71.761719 102.046875 71.703125 L 102.046875 60.441406 C 102.046875 60.394531 102.058594 60.34375 102.074219 60.296875 C 102.378906 59.4375 103.011719 59.019531 104.007812 59.019531 C 104.09375 59.019531 104.183594 59.023438 104.273438 59.03125 C 104.773438 59.058594 105.269531 59.066406 105.769531 59.066406 C 106.230469 59.066406 106.691406 59.058594 107.152344 59.050781 L 107.675781 59.042969 C 108.652344 59.042969 109.210938 59.605469 109.214844 60.546875 C 109.230469 64.207031 109.230469 67.867188 109.210938 71.527344 C 109.207031 72.507812 108.613281 73.089844 107.625 73.089844 C 107.621094 73.089844 107.535156 73.089844 107.53125 73.089844 C 106.957031 73.070312 106.382812 73.054688 105.804688 73.054688 C 105.304688 73.054688 104.804688 73.0625 104.308594 73.09375 C 104.21875 73.101562 104.128906 73.101562 104.042969 73.101562 Z M 104.042969 73.101562 " fill-opacity="1" fill-rule="nonzero"/><path fill="#000000" d="M 104.007812 59.453125 C 104.085938 59.453125 104.164062 59.457031 104.25 59.460938 C 104.753906 59.492188 105.261719 59.5 105.765625 59.5 C 106.40625 59.5 107.042969 59.484375 107.683594 59.476562 C 107.695312 59.476562 107.703125 59.476562 107.714844 59.476562 C 108.441406 59.476562 108.78125 59.871094 108.78125 60.546875 C 108.796875 64.207031 108.796875 67.867188 108.78125 71.523438 C 108.773438 72.261719 108.394531 72.65625 107.628906 72.65625 C 107.601562 72.65625 107.574219 72.65625 107.546875 72.652344 C 106.96875 72.632812 106.386719 72.617188 105.804688 72.617188 C 105.296875 72.617188 104.789062 72.628906 104.28125 72.660156 C 104.199219 72.664062 104.121094 72.667969 104.046875 72.667969 C 103.324219 72.667969 102.789062 72.4375 102.480469 71.703125 L 102.480469 60.441406 C 102.753906 59.675781 103.289062 59.453125 104.007812 59.453125 M 104.007812 58.585938 C 102.824219 58.585938 102.035156 59.113281 101.664062 60.152344 C 101.632812 60.246094 101.617188 60.34375 101.617188 60.441406 L 101.617188 71.703125 C 101.617188 71.816406 101.636719 71.929688 101.683594 72.035156 C 102.097656 73.03125 102.894531 73.535156 104.046875 73.535156 C 104.140625 73.535156 104.234375 73.53125 104.332031 73.523438 C 104.785156 73.496094 105.269531 73.484375 105.804688 73.484375 C 106.425781 73.484375 107.046875 73.503906 107.515625 73.519531 L 107.628906 73.519531 C 108.863281 73.519531 109.640625 72.757812 109.644531 71.527344 C 109.664062 68.234375 109.664062 64.644531 109.648438 60.542969 C 109.644531 59.367188 108.882812 58.609375 107.714844 58.609375 L 107.140625 58.617188 C 106.679688 58.625 106.222656 58.632812 105.765625 58.632812 C 105.203125 58.632812 104.738281 58.621094 104.300781 58.59375 C 104.199219 58.589844 104.101562 58.585938 104.007812 58.585938 Z M 104.007812 58.585938 " fill-opacity="1" fill-rule="nonzero"/></svg>