<svg xmlns="http://www.w3.org/2000/svg" xmlns:xlink="http://www.w3.org/1999/xlink" width="310" zoomAndPan="magnify" viewBox="0 0 232.5 119.999999" height="160" preserveAspectRatio="xMidYMid meet" version="1.0"><defs><clipPath id="4fe40d7e67"><path d="M 0 0.128906 L 232 0.128906 L 232 119.871094 L 0 119.871094 Z M 0 0.128906 " clip-rule="nonzero"/></clipPath><clipPath id="c9e98fb2c3"><path d="M 131 76 L 166 76 L 166 110.347656 L 131 110.347656 Z M 131 76 " clip-rule="nonzero"/></clipPath><clipPath id="8372f33240"><path d="M 115 9.316406 L 163 9.316406 L 163 57 L 115 57 Z M 115 9.316406 " clip-rule="nonzero"/></clipPath></defs><g clip-path="url(#4fe40d7e67)"><path fill="#ffffff" d="M 0 0.128906 L 232 0.128906 L 232 119.871094 L 0 119.871094 Z M 0 0.128906 " fill-opacity="1" fill-rule="nonzero"/><path fill="#ffffff" d="M 0 0.128906 L 232 0.128906 L 232 119.871094 L 0 119.871094 Z M 0 0.128906 " fill-opacity="1" fill-rule="nonzero"/></g><path fill="#ffb608" d="M 80.652344 25.148438 C 79.820312 25.976562 79.027344 26.84375 78.277344 27.746094 C 77.523438 28.648438 76.8125 29.585938 76.144531 30.550781 C 75.476562 31.515625 74.855469 32.511719 74.277344 33.535156 C 73.695312 34.558594 73.167969 35.605469 72.683594 36.675781 C 72.199219 37.746094 71.765625 38.835938 71.378906 39.945312 C 70.992188 41.058594 70.660156 42.183594 70.375 43.324219 C 70.089844 44.460938 69.859375 45.613281 69.679688 46.773438 C 69.5 47.9375 69.371094 49.101562 69.296875 50.277344 C 69.222656 51.449219 69.199219 52.621094 69.230469 53.796875 C 69.261719 54.972656 69.347656 56.140625 69.484375 57.308594 C 69.621094 58.476562 69.8125 59.632812 70.054688 60.785156 C 70.292969 61.933594 70.585938 63.070312 70.933594 64.195312 C 71.277344 65.316406 71.671875 66.421875 72.113281 67.511719 C 72.558594 68.601562 73.050781 69.664062 73.589844 70.707031 C 74.132812 71.753906 74.71875 72.769531 75.351562 73.761719 C 75.980469 74.75 76.65625 75.710938 77.375 76.640625 C 78.09375 77.570312 78.855469 78.464844 79.652344 79.324219 C 80.453125 80.1875 81.289062 81.011719 82.164062 81.796875 C 83.039062 82.582031 83.945312 83.324219 84.886719 84.027344 C 85.828125 84.734375 86.800781 85.390625 87.800781 86.007812 C 88.800781 86.625 89.828125 87.195312 90.878906 87.714844 C 91.933594 88.238281 93.003906 88.714844 94.101562 89.140625 C 95.195312 89.566406 96.308594 89.941406 97.4375 90.269531 C 98.566406 90.59375 99.707031 90.871094 100.859375 91.09375 C 102.015625 91.316406 103.175781 91.484375 104.34375 91.601562 C 105.515625 91.722656 106.6875 91.785156 107.859375 91.796875 C 109.035156 91.8125 110.210938 91.769531 111.378906 91.675781 C 112.550781 91.582031 113.714844 91.4375 114.875 91.238281 C 116.03125 91.039062 117.179688 90.789062 118.316406 90.484375 C 119.449219 90.183594 120.570312 89.828125 121.671875 89.425781 C 122.777344 89.023438 123.859375 88.570312 124.921875 88.070312 C 125.984375 87.566406 127.023438 87.019531 128.039062 86.425781 C 130.527344 84.964844 132.828125 83.25 134.9375 81.277344 C 137.046875 79.304688 138.914062 77.125 140.535156 74.734375 C 142.160156 72.347656 143.5 69.808594 144.554688 67.121094 C 145.613281 64.433594 146.359375 61.664062 146.800781 58.808594 C 146.164062 59.007812 145.523438 59.160156 144.878906 59.308594 C 144.699219 59.351562 144.519531 59.410156 144.339844 59.453125 C 142.609375 59.816406 140.855469 60 139.089844 60.003906 C 138.988281 60.003906 138.890625 60.019531 138.789062 60.019531 L 138.765625 60.019531 C 138.300781 60.019531 137.808594 59.96875 137.328125 59.941406 C 137.097656 60.878906 136.816406 61.804688 136.496094 62.714844 C 136.171875 63.625 135.808594 64.519531 135.398438 65.394531 C 134.988281 66.273438 134.539062 67.125 134.046875 67.960938 C 133.554688 68.792969 133.023438 69.597656 132.457031 70.378906 C 131.886719 71.160156 131.277344 71.910156 130.636719 72.632812 C 129.992188 73.355469 129.316406 74.046875 128.609375 74.703125 C 127.898438 75.359375 127.160156 75.980469 126.390625 76.566406 C 125.621094 77.152344 124.824219 77.699219 124 78.207031 C 123.179688 78.714844 122.332031 79.179688 121.464844 79.609375 C 120.597656 80.035156 119.710938 80.417969 118.804688 80.757812 C 117.902344 81.097656 116.980469 81.394531 116.046875 81.644531 C 115.113281 81.898438 114.171875 82.101562 113.21875 82.261719 C 112.265625 82.421875 111.304688 82.535156 110.339844 82.601562 C 109.375 82.671875 108.410156 82.691406 107.445312 82.664062 C 106.476562 82.636719 105.515625 82.5625 104.554688 82.445312 C 103.597656 82.324219 102.644531 82.160156 101.703125 81.945312 C 100.757812 81.734375 99.828125 81.476562 98.910156 81.175781 C 97.992188 80.875 97.089844 80.527344 96.203125 80.140625 C 95.320312 79.75 94.453125 79.320312 93.613281 78.84375 C 92.769531 78.371094 91.949219 77.859375 91.15625 77.308594 C 90.363281 76.753906 89.597656 76.164062 88.859375 75.539062 C 88.125 74.914062 87.421875 74.253906 86.746094 73.558594 C 86.074219 72.863281 85.4375 72.136719 84.835938 71.382812 C 84.234375 70.625 83.667969 69.839844 83.144531 69.03125 C 82.617188 68.21875 82.132812 67.382812 81.683594 66.527344 C 81.238281 65.667969 80.835938 64.789062 80.476562 63.894531 C 80.117188 62.996094 79.800781 62.082031 79.527344 61.15625 C 79.253906 60.226562 79.027344 59.289062 78.847656 58.339844 C 78.667969 57.390625 78.53125 56.433594 78.441406 55.472656 C 78.355469 54.507812 78.3125 53.542969 78.316406 52.578125 C 78.324219 51.609375 78.375 50.644531 78.472656 49.683594 C 78.570312 48.722656 78.714844 47.765625 78.90625 46.820312 C 79.097656 45.871094 79.332031 44.933594 79.613281 44.011719 C 79.894531 43.085938 80.222656 42.175781 80.589844 41.28125 C 80.960938 40.390625 81.371094 39.515625 81.828125 38.660156 C 82.28125 37.808594 82.777344 36.980469 83.308594 36.171875 C 83.84375 35.367188 84.417969 34.589844 85.027344 33.839844 C 85.636719 33.089844 86.28125 32.371094 86.960938 31.683594 C 87.640625 30.996094 88.351562 30.339844 89.09375 29.722656 C 89.835938 29.101562 90.609375 28.523438 91.40625 27.976562 C 92.207031 27.433594 93.03125 26.929688 93.878906 26.464844 C 94.726562 26 95.59375 25.578125 96.484375 25.199219 C 97.371094 24.816406 98.277344 24.480469 99.199219 24.1875 C 100.121094 23.894531 101.054688 23.648438 102 23.445312 C 102.945312 23.242188 103.898438 23.085938 104.859375 22.976562 C 105.820312 22.867188 106.78125 22.804688 107.75 22.789062 C 108.714844 22.769531 109.679688 22.800781 110.644531 22.878906 C 111.609375 22.953125 112.566406 23.078125 113.519531 23.246094 C 113.625 22.96875 113.746094 22.707031 113.859375 22.429688 C 113.933594 22.257812 114.003906 22.085938 114.082031 21.914062 C 114.417969 21.167969 114.78125 20.4375 115.179688 19.726562 C 115.238281 19.625 115.300781 19.523438 115.359375 19.421875 C 115.734375 18.777344 116.136719 18.148438 116.5625 17.539062 C 116.652344 17.40625 116.742188 17.273438 116.835938 17.144531 C 117.316406 16.480469 117.824219 15.839844 118.359375 15.222656 C 118.402344 15.175781 118.433594 15.125 118.472656 15.082031 C 116.820312 14.640625 115.148438 14.304688 113.453125 14.082031 C 111.757812 13.859375 110.054688 13.746094 108.347656 13.746094 C 106.636719 13.742188 104.933594 13.855469 103.238281 14.074219 C 101.542969 14.296875 99.871094 14.625 98.21875 15.066406 C 96.566406 15.503906 94.949219 16.050781 93.367188 16.703125 C 91.789062 17.351562 90.257812 18.101562 88.773438 18.953125 C 87.289062 19.804688 85.867188 20.746094 84.507812 21.785156 C 83.148438 22.820312 81.863281 23.941406 80.648438 25.144531 Z M 80.652344 25.148438 " fill-opacity="1" fill-rule="nonzero"/><g clip-path="url(#c9e98fb2c3)"><path fill="#ffb608" d="M 153.175781 110.109375 C 153.796875 110.152344 154.417969 110.144531 155.039062 110.085938 C 155.660156 110.03125 156.273438 109.925781 156.878906 109.769531 C 157.484375 109.613281 158.070312 109.410156 158.644531 109.160156 C 159.214844 108.914062 159.761719 108.617188 160.289062 108.28125 C 160.8125 107.945312 161.308594 107.566406 161.773438 107.148438 C 162.234375 106.734375 162.664062 106.28125 163.058594 105.796875 C 163.449219 105.3125 163.800781 104.796875 164.109375 104.257812 C 164.417969 103.714844 164.683594 103.152344 164.902344 102.566406 C 165.125 101.984375 165.296875 101.386719 165.417969 100.773438 C 165.542969 100.164062 165.617188 99.546875 165.644531 98.921875 C 165.667969 98.300781 165.644531 97.675781 165.566406 97.058594 C 165.492188 96.4375 165.371094 95.828125 165.199219 95.230469 C 165.027344 94.628906 164.804688 94.046875 164.542969 93.484375 C 164.277344 92.917969 163.964844 92.378906 163.613281 91.863281 C 163.261719 91.347656 162.871094 90.863281 162.441406 90.410156 C 162.011719 89.960938 161.550781 89.542969 161.054688 89.164062 L 143.941406 76.058594 C 140.679688 81.050781 136.554688 85.179688 131.558594 88.4375 L 144.667969 105.546875 C 145.691406 106.886719 146.945312 107.953125 148.429688 108.75 C 149.910156 109.542969 151.492188 110 153.175781 110.109375 Z M 153.175781 110.109375 " fill-opacity="1" fill-rule="nonzero"/></g><g clip-path="url(#8372f33240)"><path fill="#ffb608" d="M 138.78125 9.496094 C 135.871094 9.492188 133.058594 10.011719 130.339844 11.0625 C 127.625 12.109375 125.1875 13.613281 123.035156 15.570312 C 119.902344 18.402344 117.691406 21.832031 116.402344 25.851562 C 116.144531 26.675781 115.929688 27.511719 115.761719 28.359375 C 115.59375 29.203125 115.476562 30.058594 115.402344 30.917969 C 115.328125 31.777344 115.300781 32.640625 115.324219 33.5 C 115.34375 34.363281 115.414062 35.222656 115.53125 36.078125 C 115.644531 36.933594 115.808594 37.78125 116.019531 38.617188 C 116.226562 39.453125 116.480469 40.277344 116.78125 41.085938 C 117.082031 41.898438 117.425781 42.6875 117.8125 43.457031 C 118.199219 44.230469 118.625 44.976562 119.097656 45.703125 C 119.566406 46.425781 120.074219 47.121094 120.621094 47.789062 C 121.164062 48.460938 121.746094 49.09375 122.363281 49.699219 C 122.976562 50.304688 123.625 50.871094 124.304688 51.40625 C 124.984375 51.9375 125.6875 52.433594 126.421875 52.890625 C 127.15625 53.34375 127.910156 53.757812 128.691406 54.128906 C 129.46875 54.503906 130.265625 54.832031 131.082031 55.113281 C 131.894531 55.398438 132.722656 55.636719 133.5625 55.832031 C 134.40625 56.023438 135.253906 56.171875 136.113281 56.269531 C 137 56.371094 137.890625 56.421875 138.78125 56.425781 C 142.0625 56.433594 145.203125 55.777344 148.203125 54.449219 C 149.429688 53.910156 150.597656 53.273438 151.714844 52.539062 C 152.832031 51.800781 153.875 50.976562 154.851562 50.058594 C 155.824219 49.144531 156.714844 48.152344 157.519531 47.085938 C 158.324219 46.019531 159.035156 44.890625 159.648438 43.703125 C 160.257812 42.511719 160.765625 41.28125 161.167969 40.003906 C 161.570312 38.730469 161.859375 37.429688 162.039062 36.105469 C 162.21875 34.78125 162.285156 33.449219 162.234375 32.113281 C 162.1875 30.777344 162.027344 29.453125 161.753906 28.144531 C 161.476562 26.835938 161.09375 25.558594 160.601562 24.316406 C 160.109375 23.074219 159.515625 21.882812 158.820312 20.738281 C 158.121094 19.597656 157.335938 18.523438 156.453125 17.515625 C 155.574219 16.511719 154.617188 15.585938 153.578125 14.742188 C 152.539062 13.898438 151.4375 13.152344 150.273438 12.496094 C 149.105469 11.84375 147.890625 11.292969 146.632812 10.84375 C 145.371094 10.398438 144.082031 10.0625 142.765625 9.835938 C 141.445312 9.609375 140.121094 9.496094 138.78125 9.496094 Z M 153.542969 20.171875 L 144.4375 36.832031 L 144.4375 47.722656 C 144.4375 48.078125 144.339844 48.40625 144.144531 48.707031 C 143.949219 49.003906 143.6875 49.226562 143.359375 49.367188 L 135.632812 52.738281 C 135.039062 53 134.46875 52.953125 133.929688 52.597656 C 133.386719 52.242188 133.113281 51.742188 133.113281 51.09375 L 133.113281 36.832031 L 124.019531 20.171875 C 123.945312 20.035156 123.890625 19.890625 123.851562 19.738281 C 123.816406 19.585938 123.796875 19.433594 123.800781 19.277344 C 123.804688 19.121094 123.828125 18.96875 123.871094 18.820312 C 123.910156 18.667969 123.972656 18.527344 124.050781 18.394531 C 124.132812 18.257812 124.226562 18.136719 124.339844 18.027344 C 124.449219 17.917969 124.574219 17.824219 124.707031 17.75 C 124.84375 17.671875 124.988281 17.613281 125.136719 17.574219 C 125.289062 17.53125 125.441406 17.511719 125.597656 17.511719 L 151.96875 17.511719 C 152.125 17.511719 152.277344 17.53125 152.429688 17.574219 C 152.578125 17.613281 152.722656 17.671875 152.855469 17.75 C 152.992188 17.824219 153.117188 17.917969 153.226562 18.027344 C 153.335938 18.136719 153.433594 18.257812 153.511719 18.394531 C 153.59375 18.527344 153.652344 18.667969 153.695312 18.820312 C 153.738281 18.96875 153.761719 19.121094 153.765625 19.277344 C 153.765625 19.433594 153.75 19.585938 153.710938 19.738281 C 153.675781 19.890625 153.617188 20.035156 153.542969 20.171875 Z M 153.542969 20.171875 " fill-opacity="1" fill-rule="nonzero"/></g><path fill="#ffb608" d="M 111.960938 29.472656 C 112.074219 28.546875 112.234375 27.628906 112.441406 26.722656 L 112.441406 26.699219 C 111.035156 26.476562 109.621094 26.363281 108.199219 26.363281 C 107.386719 26.363281 106.570312 26.402344 105.761719 26.480469 C 104.949219 26.554688 104.140625 26.671875 103.339844 26.824219 C 102.539062 26.972656 101.746094 27.164062 100.964844 27.386719 C 100.179688 27.613281 99.410156 27.875 98.648438 28.171875 C 97.890625 28.46875 97.148438 28.800781 96.417969 29.164062 C 95.691406 29.53125 94.980469 29.929688 94.289062 30.359375 C 93.597656 30.792969 92.925781 31.253906 92.277344 31.75 C 91.628906 32.242188 91.003906 32.765625 90.402344 33.316406 C 89.804688 33.867188 89.230469 34.449219 88.683594 35.050781 C 88.136719 35.65625 87.621094 36.285156 87.132812 36.9375 C 86.644531 37.589844 86.1875 38.265625 85.761719 38.960938 C 85.335938 39.65625 84.941406 40.371094 84.582031 41.101562 C 84.222656 41.832031 83.898438 42.578125 83.609375 43.34375 C 83.316406 44.105469 83.0625 44.878906 82.84375 45.664062 C 82.625 46.449219 82.445312 47.242188 82.300781 48.042969 C 82.15625 48.847656 82.046875 49.652344 81.976562 50.464844 C 81.90625 51.277344 81.875 52.09375 81.882812 52.90625 C 81.886719 53.722656 81.929688 54.535156 82.011719 55.347656 C 82.09375 56.15625 82.210938 56.964844 82.367188 57.765625 C 82.519531 58.5625 82.714844 59.355469 82.941406 60.136719 C 83.171875 60.921875 83.4375 61.691406 83.738281 62.449219 C 84.039062 63.207031 84.371094 63.949219 84.742188 64.675781 C 85.109375 65.402344 85.511719 66.109375 85.949219 66.800781 C 86.382812 67.488281 86.847656 68.15625 87.347656 68.804688 C 87.84375 69.449219 88.367188 70.070312 88.921875 70.667969 C 89.476562 71.265625 90.058594 71.835938 90.667969 72.378906 C 91.273438 72.925781 91.90625 73.4375 92.5625 73.921875 C 93.214844 74.410156 93.894531 74.863281 94.589844 75.285156 C 95.289062 75.707031 96.003906 76.097656 96.734375 76.453125 C 97.46875 76.808594 98.21875 77.128906 98.980469 77.414062 C 99.746094 77.703125 100.519531 77.953125 101.304688 78.167969 C 102.09375 78.382812 102.886719 78.558594 103.691406 78.699219 C 104.492188 78.839844 105.300781 78.945312 106.113281 79.011719 C 106.925781 79.078125 107.738281 79.105469 108.554688 79.097656 C 109.371094 79.085938 110.183594 79.039062 110.992188 78.953125 C 111.804688 78.871094 112.609375 78.746094 113.410156 78.585938 C 114.207031 78.429688 115 78.230469 115.78125 78 C 116.5625 77.765625 117.332031 77.496094 118.085938 77.195312 C 118.84375 76.890625 119.585938 76.550781 120.308594 76.179688 C 121.035156 75.804688 121.738281 75.398438 122.425781 74.960938 C 123.113281 74.523438 123.78125 74.054688 124.425781 73.554688 C 125.066406 73.054688 125.6875 72.523438 126.28125 71.96875 C 126.875 71.410156 127.445312 70.824219 127.984375 70.214844 C 128.527344 69.605469 129.035156 68.972656 129.519531 68.3125 C 130 67.65625 130.449219 66.976562 130.871094 66.277344 C 131.289062 65.578125 131.675781 64.859375 132.027344 64.125 C 132.378906 63.390625 132.695312 62.640625 132.980469 61.875 C 133.261719 61.113281 133.507812 60.335938 133.71875 59.546875 C 133.625 59.53125 133.539062 59.5 133.441406 59.480469 C 133.082031 59.410156 132.738281 59.320312 132.386719 59.234375 C 131.9375 59.128906 131.488281 59.023438 131.054688 58.890625 C 130.703125 58.789062 130.363281 58.667969 130.023438 58.554688 C 129.597656 58.410156 129.171875 58.261719 128.765625 58.097656 C 128.429688 57.964844 128.101562 57.816406 127.769531 57.671875 C 127.367188 57.492188 126.96875 57.3125 126.578125 57.113281 C 126.253906 56.949219 125.9375 56.773438 125.617188 56.597656 C 125.242188 56.390625 124.867188 56.171875 124.5 55.945312 C 124.191406 55.753906 123.890625 55.554688 123.589844 55.351562 C 123.230469 55.109375 122.886719 54.863281 122.542969 54.605469 C 122.25 54.386719 121.96875 54.167969 121.6875 53.9375 C 121.355469 53.667969 121.035156 53.398438 120.714844 53.105469 C 120.445312 52.863281 120.183594 52.617188 119.921875 52.363281 C 119.617188 52.070312 119.324219 51.761719 119.023438 51.453125 C 118.777344 51.1875 118.535156 50.914062 118.296875 50.648438 C 118.019531 50.324219 117.757812 49.992188 117.488281 49.65625 C 117.265625 49.375 117.042969 49.089844 116.832031 48.796875 C 116.582031 48.449219 116.347656 48.09375 116.113281 47.730469 C 115.917969 47.433594 115.722656 47.132812 115.535156 46.824219 C 115.3125 46.449219 115.109375 46.066406 114.90625 45.683594 C 114.738281 45.367188 114.566406 45.058594 114.410156 44.734375 C 114.21875 44.335938 114.050781 43.925781 113.871094 43.515625 C 113.734375 43.191406 113.589844 42.875 113.46875 42.542969 C 113.304688 42.117188 113.167969 41.679688 113.03125 41.242188 C 112.925781 40.914062 112.808594 40.589844 112.714844 40.257812 C 112.585938 39.796875 112.488281 39.320312 112.382812 38.847656 C 112.3125 38.527344 112.226562 38.214844 112.171875 37.894531 C 112.070312 37.355469 112.007812 36.816406 111.941406 36.277344 C 111.90625 36.003906 111.855469 35.738281 111.832031 35.460938 C 111.757812 34.636719 111.714844 33.804688 111.714844 32.964844 C 111.722656 32.023438 111.773438 31.085938 111.878906 30.148438 C 111.90625 29.921875 111.933594 29.695312 111.960938 29.472656 Z M 111.960938 29.472656 " fill-opacity="1" fill-rule="nonzero"/><path fill="#ffb608" d="M 136.5 35.511719 C 136.644531 35.78125 136.71875 36.066406 136.71875 36.371094 L 136.71875 48.347656 L 140.851562 46.550781 L 140.851562 36.371094 C 140.851562 36.066406 140.925781 35.777344 141.074219 35.511719 L 148.949219 21.105469 L 128.640625 21.105469 Z M 136.5 35.511719 " fill-opacity="1" fill-rule="nonzero"/></svg>