<svg id="visual" viewBox="0 0 900 600" width="900" height="600" xmlns="http://www.w3.org/2000/svg" xmlns:xlink="http://www.w3.org/1999/xlink" version="1.1"><rect x="0" y="0" width="900" height="600" fill="#f4f4f4"></rect><defs><linearGradient id="grad1_0" x1="33.3%" y1="0%" x2="100%" y2="100%"><stop offset="20%" stop-color="#fcaf3c" stop-opacity="1"></stop><stop offset="80%" stop-color="#fcaf3c" stop-opacity="1"></stop></linearGradient></defs><defs><linearGradient id="grad1_1" x1="33.3%" y1="0%" x2="100%" y2="100%"><stop offset="20%" stop-color="#fcaf3c" stop-opacity="1"></stop><stop offset="80%" stop-color="#ffbc64" stop-opacity="1"></stop></linearGradient></defs><defs><linearGradient id="grad1_2" x1="33.3%" y1="0%" x2="100%" y2="100%"><stop offset="20%" stop-color="#ffca88" stop-opacity="1"></stop><stop offset="80%" stop-color="#ffbc64" stop-opacity="1"></stop></linearGradient></defs><defs><linearGradient id="grad1_3" x1="33.3%" y1="0%" x2="100%" y2="100%"><stop offset="20%" stop-color="#ffca88" stop-opacity="1"></stop><stop offset="80%" stop-color="#ffd8ac" stop-opacity="1"></stop></linearGradient></defs><defs><linearGradient id="grad1_4" x1="33.3%" y1="0%" x2="100%" y2="100%"><stop offset="20%" stop-color="#fbe6d0" stop-opacity="1"></stop><stop offset="80%" stop-color="#ffd8ac" stop-opacity="1"></stop></linearGradient></defs><defs><linearGradient id="grad1_5" x1="33.3%" y1="0%" x2="100%" y2="100%"><stop offset="20%" stop-color="#fbe6d0" stop-opacity="1"></stop><stop offset="80%" stop-color="#f4f4f4" stop-opacity="1"></stop></linearGradient></defs><defs><linearGradient id="grad2_0" x1="0%" y1="0%" x2="66.7%" y2="100%"><stop offset="20%" stop-color="#fcaf3c" stop-opacity="1"></stop><stop offset="80%" stop-color="#fcaf3c" stop-opacity="1"></stop></linearGradient></defs><defs><linearGradient id="grad2_1" x1="0%" y1="0%" x2="66.7%" y2="100%"><stop offset="20%" stop-color="#ffbc64" stop-opacity="1"></stop><stop offset="80%" stop-color="#fcaf3c" stop-opacity="1"></stop></linearGradient></defs><defs><linearGradient id="grad2_2" x1="0%" y1="0%" x2="66.7%" y2="100%"><stop offset="20%" stop-color="#ffbc64" stop-opacity="1"></stop><stop offset="80%" stop-color="#ffca88" stop-opacity="1"></stop></linearGradient></defs><defs><linearGradient id="grad2_3" x1="0%" y1="0%" x2="66.7%" y2="100%"><stop offset="20%" stop-color="#ffd8ac" stop-opacity="1"></stop><stop offset="80%" stop-color="#ffca88" stop-opacity="1"></stop></linearGradient></defs><defs><linearGradient id="grad2_4" x1="0%" y1="0%" x2="66.7%" y2="100%"><stop offset="20%" stop-color="#ffd8ac" stop-opacity="1"></stop><stop offset="80%" stop-color="#fbe6d0" stop-opacity="1"></stop></linearGradient></defs><defs><linearGradient id="grad2_5" x1="0%" y1="0%" x2="66.7%" y2="100%"><stop offset="20%" stop-color="#f4f4f4" stop-opacity="1"></stop><stop offset="80%" stop-color="#fbe6d0" stop-opacity="1"></stop></linearGradient></defs><g transform="translate(900, 0)"><path d="M0 272C-43.8 282.9 -87.5 293.8 -113.8 274.8C-140.1 255.8 -149 206.8 -177.5 177.5C-205.9 148.1 -254 138.4 -270.7 112.1C-287.4 85.8 -272.7 42.9 -258 0L0 0Z" fill="#f8ede2"></path><path d="M0 226.7C-36.5 235.8 -72.9 244.9 -94.9 229C-116.8 213.2 -124.2 172.4 -147.9 147.9C-171.6 123.5 -211.7 115.4 -225.6 93.4C-239.5 71.5 -227.2 35.8 -215 0L0 0Z" fill="#fddfbe"></path><path d="M0 181.3C-29.2 188.6 -58.3 195.9 -75.9 183.2C-93.4 170.5 -99.3 137.9 -118.3 118.3C-137.3 98.8 -169.3 92.3 -180.5 74.8C-191.6 57.2 -181.8 28.6 -172 0L0 0Z" fill="#ffd19a"></path><path d="M0 136C-21.9 141.5 -43.8 146.9 -56.9 137.4C-70.1 127.9 -74.5 103.4 -88.7 88.7C-103 74.1 -127 69.2 -135.3 56.1C-143.7 42.9 -136.3 21.5 -129 0L0 0Z" fill="#ffc376"></path><path d="M0 90.7C-14.6 94.3 -29.2 97.9 -37.9 91.6C-46.7 85.3 -49.7 68.9 -59.2 59.2C-68.6 49.4 -84.7 46.1 -90.2 37.4C-95.8 28.6 -90.9 14.3 -86 0L0 0Z" fill="#feb651"></path><path d="M0 45.3C-7.3 47.2 -14.6 49 -19 45.8C-23.4 42.6 -24.8 34.5 -29.6 29.6C-34.3 24.7 -42.3 23.1 -45.1 18.7C-47.9 14.3 -45.4 7.2 -43 0L0 0Z" fill="#fcaf3c"></path></g><g transform="translate(0, 600)"><path d="M0 -262C30.3 -247 60.6 -231.9 91.8 -221.7C123.1 -211.6 155.3 -206.3 190.2 -190.2C225.2 -174.2 262.9 -147.3 274.8 -113.8C286.7 -80.3 272.9 -40.2 259 0L0 0Z" fill="#f8ede2"></path><path d="M0 -218.3C25.3 -205.8 50.5 -193.3 76.5 -184.8C102.6 -176.3 129.4 -171.9 158.5 -158.5C187.6 -145.1 219.1 -122.8 229 -94.9C239 -66.9 227.4 -33.5 215.8 0L0 0Z" fill="#fddfbe"></path><path d="M0 -174.7C20.2 -164.6 40.4 -154.6 61.2 -147.8C82.1 -141 103.5 -137.5 126.8 -126.8C150.1 -116.1 175.3 -98.2 183.2 -75.9C191.2 -53.6 181.9 -26.8 172.7 0L0 0Z" fill="#ffd19a"></path><path d="M0 -131C15.2 -123.5 30.3 -116 45.9 -110.9C61.5 -105.8 77.6 -103.1 95.1 -95.1C112.6 -87.1 131.4 -73.7 137.4 -56.9C143.4 -40.2 136.4 -20.1 129.5 0L0 0Z" fill="#ffc376"></path><path d="M0 -87.3C10.1 -82.3 20.2 -77.3 30.6 -73.9C41 -70.5 51.8 -68.8 63.4 -63.4C75.1 -58.1 87.6 -49.1 91.6 -37.9C95.6 -26.8 91 -13.4 86.3 0L0 0Z" fill="#feb651"></path><path d="M0 -43.7C5.1 -41.2 10.1 -38.7 15.3 -37C20.5 -35.3 25.9 -34.4 31.7 -31.7C37.5 -29 43.8 -24.6 45.8 -19C47.8 -13.4 45.5 -6.7 43.2 0L0 0Z" fill="#fcaf3c"></path></g></svg>